# xmcd
#
# Track frame offsets:
#	150
#	27957
#	78364
#	103195
#	125480
#	152006
#
# Disc length: 2655 seconds
#
# Revision: 1
# Processed by: cddbd v1.5PL3 Copyright (c) Steve Scherf et al.
# Submitted via: audiograbber 1.82.01
#
DISCID=420a5d06
DTITLE=Jonny Lang - 1999-01-08 - Bass Performance Hall,Fortworth TX - FM Broadc
DTITLE=ast - Disc 2
DYEAR=1900
DGENRE=
TTITLE0=Jonny Lang - Leaving To Stay
TTITLE1=Jonny Lang - Standing On The Corner
TTITLE2=Jonny Lang - Lie To Me
TTITLE3=Jonny Lang - Breakin' Me
TTITLE4=Jonny Lang - Rack 'Em Up
TTITLE5=Jonny Lang - Spanish Castle Magic
EXTD=
EXTT0=
EXTT1=
EXTT2=
EXTT3=
EXTT4=
EXTT5=
PLAYORDER=
